<svg id="Layer_1" xmlns="http://www.w3.org/2000/svg" xmlns:xlink="http://www.w3.org/1999/xlink" viewBox="0 0 500 500" data-imageid="digital-nomad-89" imageName="Digital Nomad" class="illustrations_image" style="width: 144px;"><defs><style>.cls-1_digital-nomad-89{fill:url(#linear-gradient);}.cls-1_digital-nomad-89,.cls-2_digital-nomad-89,.cls-3_digital-nomad-89,.cls-4_digital-nomad-89,.cls-5_digital-nomad-89,.cls-6_digital-nomad-89,.cls-7_digital-nomad-89,.cls-8_digital-nomad-89,.cls-9_digital-nomad-89,.cls-10_digital-nomad-89,.cls-11_digital-nomad-89,.cls-12_digital-nomad-89,.cls-13_digital-nomad-89,.cls-14_digital-nomad-89,.cls-15_digital-nomad-89,.cls-16_digital-nomad-89,.cls-17_digital-nomad-89,.cls-18_digital-nomad-89,.cls-19_digital-nomad-89,.cls-20_digital-nomad-89,.cls-21_digital-nomad-89,.cls-22_digital-nomad-89,.cls-23_digital-nomad-89,.cls-24_digital-nomad-89,.cls-25_digital-nomad-89,.cls-26_digital-nomad-89,.cls-27_digital-nomad-89,.cls-28_digital-nomad-89,.cls-29_digital-nomad-89,.cls-30_digital-nomad-89,.cls-31_digital-nomad-89{stroke-width:0px;}.cls-2_digital-nomad-89{fill:url(#linear-gradient-25-digital-nomad-89);}.cls-3_digital-nomad-89{fill:url(#linear-gradient-11-digital-nomad-89);}.cls-4_digital-nomad-89{fill:url(#linear-gradient-12-digital-nomad-89);}.cls-5_digital-nomad-89{fill:url(#linear-gradient-13-digital-nomad-89);}.cls-6_digital-nomad-89{fill:url(#linear-gradient-10-digital-nomad-89);}.cls-7_digital-nomad-89{fill:url(#linear-gradient-17-digital-nomad-89);}.cls-8_digital-nomad-89{fill:url(#linear-gradient-16-digital-nomad-89);}.cls-9_digital-nomad-89{fill:url(#linear-gradient-19-digital-nomad-89);}.cls-10_digital-nomad-89{fill:url(#linear-gradient-15-digital-nomad-89);}.cls-11_digital-nomad-89{fill:url(#linear-gradient-23-digital-nomad-89);}.cls-12_digital-nomad-89{fill:url(#linear-gradient-21-digital-nomad-89);}.cls-13_digital-nomad-89{fill:url(#linear-gradient-18-digital-nomad-89);}.cls-14_digital-nomad-89{fill:url(#linear-gradient-14-digital-nomad-89);}.cls-15_digital-nomad-89{fill:url(#linear-gradient-22-digital-nomad-89);}.cls-16_digital-nomad-89{fill:url(#linear-gradient-20-digital-nomad-89);}.cls-17_digital-nomad-89{fill:url(#linear-gradient-27-digital-nomad-89);}.cls-18_digital-nomad-89{fill:url(#linear-gradient-24-digital-nomad-89);}.cls-19_digital-nomad-89{fill:url(#linear-gradient-26-digital-nomad-89);}.cls-20_digital-nomad-89{fill:url(#linear-gradient-4-digital-nomad-89);}.cls-21_digital-nomad-89{fill:url(#linear-gradient-2-digital-nomad-89);}.cls-22_digital-nomad-89{fill:url(#linear-gradient-3-digital-nomad-89);}.cls-23_digital-nomad-89{fill:url(#linear-gradient-8-digital-nomad-89);}.cls-24_digital-nomad-89{fill:url(#linear-gradient-9-digital-nomad-89);}.cls-25_digital-nomad-89{fill:url(#linear-gradient-7-digital-nomad-89);}.cls-26_digital-nomad-89{fill:url(#linear-gradient-5-digital-nomad-89);}.cls-27_digital-nomad-89{fill:url(#linear-gradient-6-digital-nomad-89);}.cls-28_digital-nomad-89{fill:#231f20;}.cls-29_digital-nomad-89{fill:#ffb4a3;}.cls-30_digital-nomad-89,.cls-31_digital-nomad-89{fill:#68e1fd;}.cls-31_digital-nomad-89{isolation:isolate;opacity:.25;}</style><linearGradient id="linear-gradient-digital-nomad-89" x1="-2306.27" y1="-4322.63" x2="-2423.31" y2="-4265.23" gradientTransform="translate(2462.41 4406.51)" gradientUnits="userSpaceOnUse"><stop offset="0" stop-color="#fff" stop-opacity="0"/><stop offset=".84" stop-color="#fff" stop-opacity=".84"/><stop offset=".97" stop-color="#fff"/></linearGradient><linearGradient id="linear-gradient-2-digital-nomad-89" x1="-1944.38" y1="-4283.55" x2="-2230.69" y2="-4226.05" xlink:href="#linear-gradient-digital-nomad-89"/><linearGradient id="linear-gradient-3-digital-nomad-89" x1="-2025.46" y1="-4317.13" x2="-2165.59" y2="-4288.98" gradientTransform="translate(2503.04 4464.1)" xlink:href="#linear-gradient-digital-nomad-89"/><linearGradient id="linear-gradient-4-digital-nomad-89" x1="-1988.95" y1="-4315.55" x2="-2287.11" y2="-4097.41" gradientTransform="translate(2462.41 4406.51)" gradientUnits="userSpaceOnUse"><stop offset="0" stop-color="#000" stop-opacity="0"/><stop offset=".97" stop-color="#000"/></linearGradient><linearGradient id="linear-gradient-5-digital-nomad-89" x1="-2060.22" y1="-4325.15" x2="-2305.97" y2="-4145.34" gradientTransform="translate(2503.04 4464.1)" xlink:href="#linear-gradient-4-digital-nomad-89"/><linearGradient id="linear-gradient-6-digital-nomad-89" x1="-2095.5" y1="-4285.94" x2="-2167.56" y2="-4271.47" gradientTransform="translate(2503.04 4464.1)" xlink:href="#linear-gradient-digital-nomad-89"/><linearGradient id="linear-gradient-7-digital-nomad-89" x1="-2428.4" y1="-4117.31" x2="-2423.96" y2="-4120.58" xlink:href="#linear-gradient-4-digital-nomad-89"/><linearGradient id="linear-gradient-8-digital-nomad-89" x1="-2398.39" y1="-4141.17" x2="-2394.63" y2="-4144.04" xlink:href="#linear-gradient-4-digital-nomad-89"/><linearGradient id="linear-gradient-9-digital-nomad-89" x1="-2397.81" y1="-4122.18" x2="-2366.4" y2="-4085.73" xlink:href="#linear-gradient-4-digital-nomad-89"/><linearGradient id="linear-gradient-10-digital-nomad-89" x1="-2393.83" y1="-4133.49" x2="-2405.29" y2="-4082.52" xlink:href="#linear-gradient-digital-nomad-89"/><linearGradient id="linear-gradient-11-digital-nomad-89" x1="-2275.4" y1="-4114.45" x2="-2190.05" y2="-4122.74" xlink:href="#linear-gradient-4-digital-nomad-89"/><linearGradient id="linear-gradient-12-digital-nomad-89" x1="-2298.56" y1="-4079.59" x2="-2248.5" y2="-4079.59" xlink:href="#linear-gradient-4-digital-nomad-89"/><linearGradient id="linear-gradient-13-digital-nomad-89" x1="-2252.01" y1="-4087.41" x2="-2108.56" y2="-4235.6" xlink:href="#linear-gradient-4-digital-nomad-89"/><linearGradient id="linear-gradient-14-digital-nomad-89" x1="-2201.62" y1="-4158.74" x2="-2226.81" y2="-4140.76" xlink:href="#linear-gradient-4-digital-nomad-89"/><linearGradient id="linear-gradient-15-digital-nomad-89" x1="-2220.18" y1="-4076.29" x2="-2218.1" y2="-4063.35" xlink:href="#linear-gradient-4-digital-nomad-89"/><linearGradient id="linear-gradient-16-digital-nomad-89" x1="-2207.24" y1="-4225.24" x2="-2277.98" y2="-4218.91" xlink:href="#linear-gradient-digital-nomad-89"/><linearGradient id="linear-gradient-17-digital-nomad-89" x1="-2206.13" y1="-4278.73" x2="-2456.09" y2="-3820.32" xlink:href="#linear-gradient-4-digital-nomad-89"/><linearGradient id="linear-gradient-18-digital-nomad-89" x1="-2130.14" y1="-4055.61" x2="-2146.14" y2="-4140.97" xlink:href="#linear-gradient-4-digital-nomad-89"/><linearGradient id="linear-gradient-19-digital-nomad-89" x1="-2131.14" y1="-4101.29" x2="-2112.61" y2="-4038" xlink:href="#linear-gradient-4-digital-nomad-89"/><linearGradient id="linear-gradient-20-digital-nomad-89" x1="-2314.77" y1="-3967.95" x2="-2278.91" y2="-3940.98" xlink:href="#linear-gradient-4-digital-nomad-89"/><linearGradient id="linear-gradient-21-digital-nomad-89" x1="-2215.69" y1="-4241.95" x2="-2234.36" y2="-4242.83" xlink:href="#linear-gradient-digital-nomad-89"/><linearGradient id="linear-gradient-22-digital-nomad-89" x1="-2357.38" y1="5283.86" x2="-2236.18" y2="5226.96" gradientTransform="translate(2534.04 5392.92) scale(1 -1)" gradientUnits="userSpaceOnUse"><stop offset="0" stop-color="#231f20" stop-opacity="0"/><stop offset="1" stop-color="#231f20"/></linearGradient><linearGradient id="linear-gradient-23-digital-nomad-89" x1="-2186.26" y1="-4130.01" x2="-2273.92" y2="-4067.44" xlink:href="#linear-gradient-4-digital-nomad-89"/><linearGradient id="linear-gradient-24-digital-nomad-89" x1="-2266.39" y1="-4097.15" x2="-2172.14" y2="-4057.63" xlink:href="#linear-gradient-4-digital-nomad-89"/><linearGradient id="linear-gradient-25-digital-nomad-89" x1="-2316.45" y1="-4062.02" x2="-2147.66" y2="-3991.25" xlink:href="#linear-gradient-4-digital-nomad-89"/><linearGradient id="linear-gradient-26-digital-nomad-89" x1="-2231.38" y1="-4055.17" x2="-2115.78" y2="-4159.34" xlink:href="#linear-gradient-4-digital-nomad-89"/><linearGradient id="linear-gradient-27-digital-nomad-89" x1="-2312.3" y1="-3970.13" x2="-2306.17" y2="-3940.69" xlink:href="#linear-gradient-4-digital-nomad-89"/></defs><path id="baclground_digital-nomad-89" class="cls-31_digital-nomad-89 targetColor" d="M415.18,250.97c-9.96,11.05-22.54,19.59-31.91,31.16-12.46,15.39-18.71,35.44-28.2,52.7-2.37,4.36-5.07,8.54-8.06,12.51-3.19,4.21-6.9,8.01-11.04,11.3-18,14.14-42.85,15.63-65.61,13.24-22.17-2.32-44.29-7.74-66.47-6.04l-1.79.15c-9.93.94-19.8,3.34-29.64,5.42-12.95,2.74-25.84,4.94-38.73,2.54-16.06-3.11-29.98-13.01-38.18-27.17-8.82-15.51-9.77-34.31-17.14-50.53-5.01-11.04-12.84-20.58-18.36-31.38-12.18-24.27-12.06-52.89.34-77.04,7.2-13.74,18.02-25.17,28.71-36.4l32.29-33.95c10.53-11.05,21.37-22.36,35.18-28.83,10.44-4.79,22-6.57,33.39-5.16,9.26,1.05,16.38,6.43,24.37,9.39,1.62.62,3.3,1.11,5,1.46,9.72,2,20.22-.74,30.53.73.81.11,1.61.25,2.41.42,11.27,2.38,22.11,6.97,32.36,12.08,19.65,9.76,38.72,21.78,60.3,25.81,18.25,3.4,37.71.93,54.94,7.82,20.13,8.03,33.98,28.59,36.2,50.14s-6.36,43.53-20.87,59.64h-.02Z" style="fill: rgb(26, 97, 142);"/><g id="notebook_digital-nomad-89"><path class="cls-30_digital-nomad-89 targetColor" d="M150.76,117.92c-14.35,12.84-29.77,24.44-46.09,34.66l-.84.51c-1.18.85-2.69,1.1-4.08.69-1.31-.55-1.98-1.95-2.57-3.23-9.96-21.66-29.83-37.14-37.83-59.82,15.32-11.59,34.94-19.76,51.76-29.23,1.42-.8,3.01-1.62,4.59-1.42.14.01.28.04.42.07,1.68.42,2.8,1.96,3.76,3.39,11.61,17.35,21.93,35.53,30.89,54.38h-.01Z" style="fill: rgb(26, 97, 142);"/><path class="cls-1_digital-nomad-89" d="M150.76,117.92c-14.35,12.84-29.77,24.44-46.09,34.66l-.84.51c-.18-.04-.36-.1-.53-.17-1.31-.55-1.98-1.96-2.57-3.24-9.96-21.65-29.83-37.13-37.82-59.76,15.32-11.58,34.94-19.82,51.76-29.23.34-.19.68-.38,1.05-.55.14.01.28.04.42.07,1.68.42,2.8,1.96,3.76,3.39,11.59,17.33,21.9,35.49,30.85,54.32h0Z"/></g><g id="laptop_digital-nomad-89"><path class="cls-30_digital-nomad-89 targetColor" d="M453.09,185.12l24.33-56.03c.62-8.56-4.76-15.44-11.81-20.34-23.16-16.08-66.39-38.9-68.96-39.79-2.11-.75-4.05,1.05-5.72,4.4-6.61,13.33-9.47,51.69-8.36,59.45-1.05.57-1.99,1.29-2.81,2.16,0,0-36.04,21.12-46.25,29.12l-.46.37c-2.45,1.98-3.29,5.48,1.87,9.25,21.13,15.41,49.9,38.22,71.02,53.69,1.02.9,2.28,1.49,3.63,1.71,1.67.11,3.16-.96,4.51-1.98l50.99-38.65c.86-.65,1.81-1.52,1.67-2.59-.07-.85,9.08-34.85,10.67-56.79l-24.32,56.02Z" style="fill: rgb(26, 97, 142);"/><path class="cls-21_digital-nomad-89" d="M471.7,127.69c.58-8.08-4.49-14.59-11.16-19.21-21.82-15.19-62.72-36.74-65.14-37.59-1.63-.57-3.16.41-4.46,2.47-6.61,13.33-9.47,51.69-8.36,59.45-1.05.57-1.99,1.29-2.81,2.16,0,0-36.04,21.12-46.25,29.12-.2,1.67.72,3.67,3.57,5.75,20,14.56,47.14,36.11,67.09,50.66.97.85,2.16,1.41,3.43,1.61,1.59.09,3-.91,4.21-1.87l48.16-36.51c.82-.62,1.72-1.43,1.59-2.45-.2-.74-.69-1.36-1.37-1.72.19-.08.37-.18.55-.29,2.03-1.32,9.45-30.85,10.96-51.58h-.01Z"/><polygon class="cls-22_digital-nomad-89" points="382.58 132.81 461.64 181.28 460.05 183.73 380.59 134.22 382.58 132.81"/><path class="cls-30_digital-nomad-89 targetColor" d="M395.07,77.45l69.75,42.49s-2.78,37.9-8.11,54.14l-70.53-44.06,8.88-52.56h0Z" style="fill: rgb(26, 97, 142);"/><path class="cls-20_digital-nomad-89" d="M395.07,77.45l69.75,42.49s-2.78,37.9-8.11,54.14l-70.53-44.06,8.88-52.56h0Z"/><polygon class="cls-26_digital-nomad-89" points="358.71 154.52 382.13 140.29 448.71 180.61 422.52 198.76 358.71 154.52"/><polygon class="cls-27_digital-nomad-89" points="372.94 170.52 397.64 187.32 382.42 197.79 359.5 180.76 372.94 170.52"/></g><g id="internet_digital-nomad-89"><path class="cls-30_digital-nomad-89 targetColor" d="M22.63,273.22c-.2-.37-.06-.84.32-1.04.29-.16.65-.11.89.12,7.37,7.37,23.41,29.34,23.76,30.02.46.8.27,1.82-.46,2.39-3.27,1.95-12.24-12.22-13.81-14.41-3.93-5.46-7.5-11.17-10.7-17.08Z" style="fill: rgb(26, 97, 142);"/><path class="cls-30_digital-nomad-89 targetColor" d="M52.16,251.06c-.47-.87.66-1.47,4.29,2.2,24.55,24.85,21.95,26.14,19.2,26.53-1.72.26-4.21-3.86-5.07-4.86-4.08-5-16.74-20.74-18.42-23.86h0Z" style="fill: rgb(26, 97, 142);"/><path class="cls-25_digital-nomad-89" d="M22.63,273.22c-.2-.37-.06-.84.32-1.04.29-.16.65-.11.89.12,7.37,7.37,23.41,29.34,23.76,30.02.46.8.27,1.82-.46,2.39-3.27,1.95-12.24-12.22-13.81-14.41-3.93-5.46-7.5-11.17-10.7-17.08Z"/><path class="cls-23_digital-nomad-89" d="M52.16,251.06c-.47-.87.66-1.47,4.29,2.2,24.55,24.85,21.95,26.14,19.2,26.53-1.72.26-4.21-3.86-5.07-4.86-4.08-5-16.74-20.74-18.42-23.86h0Z"/><path class="cls-30_digital-nomad-89 targetColor" d="M100.81,289.73c-2.45,3.85-6.26,6.6-9.95,9.31-4.97,3.56-9.73,7.41-14.26,11.52-2.17,2.22-4.56,4.21-7.13,5.95-4.44,2.65-9.78,3.32-14.74,1.87-3.87-1.16-9.12-4.38-10.63-8.42-.07-.2-.13-.4-.18-.61-.91-4.21,5.08-7.51,8.15-9.65,7.5-5.23,14.37-11.32,20.46-18.14,1.11-1.42,2.49-2.61,4.06-3.49,1.36-.56,2.81-.89,4.28-.96l16.61-1.77c.87-.18,1.76-.1,2.59.21.42.23.78.54,1.05.93.09.11.17.23.25.35,2.64,3.76,1.86,9.06-.58,12.92l.02-.02Z" style="fill: rgb(26, 97, 142);"/><path class="cls-24_digital-nomad-89" d="M100.81,289.73c-2.45,3.85-6.26,6.6-9.95,9.31-4.97,3.56-9.73,7.41-14.26,11.52-2.17,2.22-4.56,4.21-7.13,5.95-4.44,2.65-9.78,3.32-14.74,1.87-3.87-1.16-9.12-4.38-10.63-8.42-.07-.2-.13-.4-.18-.61-.91-4.21,5.08-7.51,8.15-9.65,7.5-5.23,14.37-11.32,20.46-18.14,1.11-1.42,2.49-2.61,4.06-3.49,1.36-.56,2.81-.89,4.28-.96l16.61-1.77c.87-.18,1.76-.1,2.59.21.42.23.78.54,1.05.93.09.11.17.23.25.35,2.64,3.76,1.86,9.06-.58,12.92l.02-.02Z"/><path class="cls-30_digital-nomad-89 targetColor" d="M101.18,276.47c-.43.36-.8.66-1.05.93-5.79,5.55-11.7,10.99-17.36,16.66-2.77,2.82-5.79,5.39-9.01,7.68-8.65,5.78-19.26,7.13-29.79,7.63-.91-4.21,5.08-7.51,8.15-9.65,7.5-5.23,14.37-11.32,20.46-18.14,1.09-1.43,2.46-2.63,4.02-3.53,1.36-.56,2.81-.89,4.28-.96l16.61-1.77c.87-.18,1.76-.1,2.59.21.43.22.81.54,1.09.93h.01Z" style="fill: rgb(26, 97, 142);"/><path class="cls-6_digital-nomad-89" d="M46.22,306.96s16.18-.96,22.11-4.32c3.44-1.93,6.67-4.22,9.63-6.82l4.13-17.21c-1.58-.22-3.2-.09-4.73.39-1.71.79-8.87,8.69-16.06,15.02-5.97,5.24-14.97,9.67-15.07,12.94h0Z"/></g><g id="character_digital-nomad-89"><path class="cls-29_digital-nomad-89" d="M191.99,213.72s-13.9,21.68-17.75,20.14c-3.85-1.55-3.35-23.23-3.35-23.23l16.71-17.13,4.39,20.22Z"/><path class="cls-28_digital-nomad-89" d="M192.39,216.96s-5.86,17.45-12.68,19.9c-6.82,2.44-12.26,17.68-9.68,21.92l4.21,6.91,5.63-4.75s-5.79-7.52-2.35-12.78c4.47-6.83,2.21-.51,8.2-8.16,5.99-7.65,7.55-13.1,7.55-13.1l-.87-9.94h-.01Z"/><path class="cls-30_digital-nomad-89 targetColor" d="M165.34,309.07c-1.44,3.97-2.65,8.65-.36,12.2,1.52,2.35,4.21,3.6,6.79,4.67,11.07,4.6,22.56,8.12,34.31,10.53,2.68.56,5.86.93,7.83-.98.92-1.04,1.57-2.28,1.92-3.62l8.52-25c5.76-16.84,11.58-33.89,20.38-49.4,1.54-2.72,3.23-5.75,2.49-8.79-.66-2.78-3.29-4.76-6.06-5.48-7.79-2.11-17.24.76-25.35.21-4.48-.31-9.47-1.38-13.54,1.05-5.6,3.33-8.97,11.58-12.27,16.84-4.48,7.2-8.86,14.46-12.88,21.93-4.55,8.31-8.49,16.95-11.77,25.84h0Z" style="fill: rgb(26, 97, 142);"/><path class="cls-3_digital-nomad-89" d="M244.72,257.51c-8.81,15.52-14.62,32.52-20.38,49.4-2.15,6.32-4.3,12.63-6.46,18.95l-2.11,6.03c-.34,1.34-1,2.58-1.92,3.62-.56.53-1.24.92-1.99,1.14-1.93.42-3.94.36-5.84-.16-11.75-2.4-23.23-5.93-34.31-10.53-2.58-1.05-5.26-2.33-6.79-4.67-.62-.95-1.01-2.03-1.16-3.16-.45-2.94.47-6.19,1.52-9.07,3.28-8.87,7.22-17.49,11.77-25.79,4.02-7.46,8.42-14.74,12.88-21.93,3.31-5.32,6.67-13.53,12.27-16.84,4.09-2.43,9.05-1.36,13.54-1.05,8.11.55,17.56-2.27,25.35-.21,2.77.73,5.4,2.71,6.06,5.48.79,3.04-.91,6.07-2.44,8.79h0Z"/><path class="cls-4_digital-nomad-89" d="M213.91,335.53c-1.97,1.91-5.15,1.54-7.83.98-3.21-.65-6.41-1.4-9.58-2.23-8.43-2.2-16.69-4.99-24.73-8.34-.85-.36-1.73-.73-2.55-1.17-1.69-.78-3.14-1.99-4.21-3.51-.62-.95-1.01-2.03-1.16-3.16l1.45-.72c2.68-.4,5.39-.56,8.09-.48,6.63.02,13.16,1.55,19.11,4.48,1.13.59,2.22,1.19,3.28,1.79,6.38,3.6,12.44,7.73,18.12,12.35h.01Z"/><path class="cls-30_digital-nomad-89 targetColor" d="M219.76,334.21c.83,2.23,1.89,4.62,4.02,5.72,1.71.89,3.75.75,5.67.55,10.77-1.07,21.46-2.79,32.01-5.16.57-.08,1.11-.31,1.56-.66.51-.66.75-1.49.66-2.33.31-14.96-.55-30.09,2.55-44.73,1.23-5.8,3.07-11.48,3.68-17.38,1.12-11.26-2.27-22.5-9.42-31.26-.41-.59-.98-1.05-1.65-1.32-.92-.12-1.86.09-2.64.58-8.49,3.95-18.03,3.93-27.2,3.83-6.57-.07-14.87-1.81-15.46,6.6-1.25,17.78-2.18,36.4-.57,54.2.87,10.71,3.15,21.25,6.79,31.36h0Z" style="fill: rgb(26, 97, 142);"/><path class="cls-5_digital-nomad-89" d="M269.95,270.22c-.61,5.89-2.45,11.58-3.68,17.38-3.09,14.64-2.24,29.77-2.55,44.73.05.69-.1,1.38-.41,2-.07.12-.15.23-.25.33-.45.35-.99.58-1.56.66-10.56,2.37-21.25,4.09-32.01,5.16-1.93.2-3.97.35-5.67-.55-2.11-1.05-3.16-3.48-4.02-5.72-3.64-10.11-5.92-20.65-6.79-31.36-1.61-17.8-.68-36.42.57-54.2.59-8.42,8.89-6.67,15.46-6.6,9.17.09,18.71.12,27.2-3.83.79-.49,1.72-.7,2.64-.58.67.26,1.25.72,1.65,1.32.45.55.88,1.05,1.29,1.66,6.27,8.52,9.17,19.07,8.13,29.6h0Z"/><path class="cls-14_digital-nomad-89" d="M245.38,242.86s2.19,19.54,15.53,20.73l-2.2-23.31-13.33,2.58h0Z"/><path class="cls-10_digital-nomad-89" d="M263.72,332.32c0,.08,0,1.98-3.93,2.71-.41.07-.86.14-1.36.18-5.34.49-28.2,4.72-28.2,4.72,0,0-7.46,1.75-8.05-2.97,0,0,3.03-1.12,7.57-2.41,7.77-2.22,20-4.98,29.02-3.58,1.7.25,3.36.71,4.95,1.36h0Z"/><path class="cls-28_digital-nomad-89" d="M237.09,130.89c-.12.37-.76.16-.79-.23s.31-.69.6-.94c4.47-3.52,10.11-5.23,15.79-4.77,1.08.02,2.14.35,3.04.95.76.69,1.33,1.56,1.68,2.53,7.86,17.56,13.82,35.91,17.78,54.74.75,3.54,1.82,7.61,5.13,9.05,3.53,1.55,7.76-1.05,9.32-4.58s1.14-7.56.56-11.36c-1.57-10.87-4.48-21.51-8.66-31.66-3.14-7.33-7.03-14.3-10.19-21.54s-6.39-15.39-13.18-19.66c-6.79-4.27-15.2-3.58-22.94-2.11-6.69,1.27-14.23,3.91-16.55,10.31-1.87,5.18.62,11.17,4.77,14.74,4.15,3.57,9.63,5.26,15.02,6.37,1.66.45,3.4.54,5.11.27"/><path class="cls-28_digital-nomad-89" d="M250.38,111.84c3.26.31,6.69.96,9.12,3.16,1.45,1.49,2.61,3.23,3.42,5.15,9.91,20.12,16.58,41.64,23.22,63.06,1.13,3.65,2.24,7.69.73,11.2-1.41,3.23-4.72,5.17-7.89,6.69-5.73,2.76-11.73,4.93-17.9,6.47-1.63.78-3.59.11-4.4-1.52-5.11-7.03-8.48-15.14-11.8-23.16l-21.57-52.05c-1.19-2.87-4.52-7.85-4.58-10.99-.07-3.78,2.89-4.36,6.23-5.4,8.22-2.56,16.86-3.45,25.42-2.62h0Z"/><path class="cls-30_digital-nomad-89 targetColor" d="M172.7,147.75c-3.95,10.83-7.07,21.95-9.33,33.26-.82,2.08.21,4.44,2.3,5.25.06.02.12.04.18.06l9.93,6.24c2.11,1.33,5.03,2.61,6.88.94,1.21-1.05,1.28-2.94,1.25-4.57-.17-12.4-.66-24.79-1.47-37.17-.2-2.99,1.38-13.85-2.41-14.87s-6.32,8.09-7.33,10.85h0Z" style="fill: rgb(26, 97, 142);"/><path class="cls-30_digital-nomad-89 targetColor" d="M204.22,126c-6.85.59-14.12,1.56-19.42,5.93-1.65,1.39-3.11,3.01-4.33,4.79-4.69,6.68-7.04,14.73-6.69,22.88.29,6.24,2.17,12.3,4.03,18.26,3.81,12.2,7.62,24.41,12.01,36.42,3.16,8.79,3.25,22.44,9.6,29.33,2,2.16,7.89-.63,10.61.53,3.51,1.49,7.43,1.54,11.24,1.42,10-.32,19.94-1.62,29.69-3.88,2.4-.57,8.42-.57,9.58-2.73.74-1.34,1.85-1.85,1.85-3.38.06-19.79-5.16-41.47-6.86-61.2-1.05-11.78-2.45-23.91-8.25-34.21-5.8-10.31-16.98-18.43-28.78-17.06-4.19.51-10.08,2.54-14.27,2.91h-.01Z" style="fill: rgb(26, 97, 142);"/><path class="cls-8_digital-nomad-89" d="M262.39,235.57c0,1.53-1.12,2.04-1.85,3.38-.45.64-1.1,1.11-1.84,1.33-2.18.62-4.42,1.02-6.68,1.21h0c-.38.05-.73.12-1.05.18-9.74,2.27-19.69,3.57-29.69,3.88-3.81.12-19.85.21-21.85-1.95-6.32-6.88-6.39-20.54-9.6-29.33-4.39-12.01-8.2-24.21-12.01-36.42-1.86-5.97-3.74-12.02-4.03-18.26-.35-8.16,2-16.2,6.69-22.88,1.22-1.78,2.68-3.4,4.33-4.79,2.48-1.98,5.35-3.41,8.42-4.21,3.59-.92,7.27-1.5,10.97-1.74,4.21-.37,10.08-2.42,14.27-2.91,1.53-.18,3.07-.2,4.6-.06h0c3.19.31,6.29,1.2,9.16,2.63,2.96,1.46,5.68,3.36,8.07,5.64,2.75,2.58,5.09,5.57,6.94,8.85,5.8,10.31,7.24,22.43,8.25,34.21,1.75,19.79,6.97,41.44,6.91,61.23h-.01Z"/><path class="cls-7_digital-nomad-89" d="M262.39,235.57c0,1.53-1.12,2.04-1.85,3.38-.45.64-1.1,1.11-1.84,1.33l-6.68,1.22h0l-1.05.18-4.55-70.71-24.62-17.9s-7.12-10.16-10.67-10.16-14.45-6.96-14.45-6.96c-3.05.29-11.58,27.71-11.58,27.71l2.91-30.33,5.26-5.63,6.17-4.79,19.07.15,4.6-.06h0l6.05-.08,3.16,2.72,4.64,4.05,3.43,1.59c2.75,2.58,5.09,5.57,6.94,8.85,5.8,10.31,7.24,22.43,8.25,34.21,1.66,19.79,6.88,41.44,6.82,61.23h-.01Z"/><path class="cls-28_digital-nomad-89" d="M256.48,212.59s12.14-6.32,16.67-15.53l3.36,2.69s-10.65,17.2-19.55,17.2-.48-4.37-.48-4.37h0Z"/><path class="cls-28_digital-nomad-89" d="M216.52,129.32c-8.59,13.95-13.05,31.4-9.11,47.3,2.91,11.65,10.98,21.31,19.63,29.63,3.85,3.71,7.94,7.28,12.73,9.65s10.43,3.41,15.55,1.87c1.72-.52,3.66-2.11,2.93-3.71-.41-.67-1.03-1.19-1.77-1.47-8.58-4.39-17.53-9.02-23.16-16.84-4.27-5.94-6.32-13.19-7.64-20.37-2.34-12.16-3.01-25.36,2.74-36.33,2.87-5.49,7.31-10.33,8.56-16.4.07-.38-11.67-3.49-13.04-3.16-3.69,1.06-5.55,6.78-7.41,9.82h0Z"/><path class="cls-28_digital-nomad-89" d="M172.78,148.18c-4.21,20.65,3.8,64.13,17.9,68.78.33-2.24-5.34-23.37-5.82-41.11-.94-34.64,11.66-45.88,11.82-48.91.07-1.51-5.17-3.91-11.81.54-7.11,4.75-10.37,12.56-12.08,20.7h0Z"/><path class="cls-29_digital-nomad-89" d="M219.28,160.82c-1.34,14.42-1.76,28.9-1.26,43.37,8.06-10.44,9.54-24.38,10.71-37.52,2.91.61,5.7,1.64,8.31,3.07,2.63,1.47,4.47,4.02,5.03,6.98.22,1.63,4.64,4.48,4.33,6.08-1.99,9.99-16.72,33.59-19.85,36.61-5.34,5.11-10.6,7.14-15.59,1.69s-6.55-13.16-7.28-20.5c-.83-8.22-.89-16.49-.18-24.72,0,.52-3.38-3.68-3.59-4.35-.79-2.45-.4-5.26-.15-7.79.44-4.21.86-9.58,3.28-13.24,2.24-3.4,5.68-4.35,9.56-3.05,6.13,2.05,7.24,7.58,6.69,13.35v.02Z"/><path class="cls-29_digital-nomad-89" d="M163.15,197.1c1.62-11.98,4.27-18.18,5.89-30.15.49-3.67,1.05-7.54,3.32-10.53s6.78-4.52,9.77-2.32c2.21,1.61,2.85,4.59,3.33,7.28.85,3.86,1.21,7.82,1.05,11.77-.32,3.94-1.77,7.94-4.74,10.53-1.12.79-2.12,1.74-2.97,2.81-.63,1.2-.97,2.54-.98,3.89-.95,12.63,1.12,25.34-.22,37.9-.24,2.31-1.05,5.11-3.36,5.51-1.45.07-2.85-.5-3.84-1.56-4.74-4.13-7.14-10.42-7.75-16.67-.66-6.17-.5-12.4.49-18.53"/><path class="cls-29_digital-nomad-89" d="M324.38,337.94c-.14.68-.51,1.28-1.05,1.72-19.02,18.38-39.65,36.15-64.56,45.06-2.98,1.05-6.32,2.01-9.27.96-3.61-1.26-16.46-31.09-19.21-45.75-.16-.83-.28-1.61-.37-2.33h0c-.13-1.01-.17-2.03-.12-3.04,7.77-2.22,20-4.98,29.02-3.58l.26.94c0,.12.05.22.07.34.21.94.44,1.86.68,2.79.57,2.22,1.21,4.42,1.91,6.6h0c.66,2.11,1.39,4.17,2.2,6.19.21.78.68,1.46,1.33,1.94.97.57,2.19.15,3.22-.29,15.92-6.77,31.09-15.17,45.26-25.07.61-.55,1.4-.85,2.22-.82.92.15,1.49,1.05,1.95,1.88,1.99,3.63,3.98,7.26,5.98,10.88.3.48.46,1.03.47,1.59h0Z"/><path class="cls-29_digital-nomad-89" d="M201.13,326.32c-.33,1.62-3.97,6.46-4.63,7.96-2.04,4.61-5.34,8.76-7.68,13.28-2.34,4.89-4.1,10.03-5.26,15.32-3.09,12.11-5.8,24.31-8.15,36.58-2.01,10.48-3.77,21.01-5.26,31.58-4.76-.96-9.38-2.51-13.75-4.62-1.02-.41-1.92-1.05-2.65-1.86-1-1.29-1.05-3.07-1.05-4.72.16-16.12,1.34-32.22,3.54-48.19,1.94-13.31,4.59-26.7,9.85-39.11.69-1.63,1.8-4.64,3.16-7.77.88-2.09,1.89-4.13,3.02-6.09h0c.37-.62.74-1.19,1.12-1.72,6.63.02,13.16,1.55,19.11,4.48,1.13.59,2.22,1.19,3.28,1.79.84.53,5.37,3.08,5.37,3.08h-.02Z"/><path class="cls-30_digital-nomad-89 targetColor" d="M326.97,312.96c.39-.27.87-.38,1.34-.32.46.18.84.53,1.05.98,7.41,12.25,13.38,25.32,17.77,38.95.51,1.59.96,3.46,0,4.8-.62.72-1.46,1.22-2.39,1.42-5.35,1.43-10.73-1.77-15.34-4.82l-12.82-8.48c1.23.81,1.65-9.04,1.49-9.82-.79-3.88-3.4-6.53-4.87-10.04-3.13-7.27,8.55-9.99,13.77-12.66h0Z" style="fill: rgb(26, 97, 142);"/><path class="cls-30_digital-nomad-89 targetColor" d="M157.05,424.92c4.21,3.35,10.31,1.78,15.38.06,2.28,6.42,3.99,13.02,5.12,19.74.34,1.26.28,2.6-.17,3.83-.73,1.18-1.85,2.09-3.16,2.56-12.7,6.03-27.23,6.49-41.29,6.84-.86.08-1.73-.02-2.55-.28-2.79-1.13-2.58-5.17-1.49-7.97,3.08-7.98,9.26-11.73,14.22-18.13,1.73-2.23,2.84-4.77,4.81-6.85,3.72-3.92,5.36-2.81,9.13.2h0Z" style="fill: rgb(26, 97, 142);"/><path class="cls-13_digital-nomad-89" d="M326.97,312.96c.39-.27.87-.38,1.34-.32.46.18.84.53,1.05.98,7.41,12.25,13.38,25.32,17.77,38.95.51,1.59.96,3.46,0,4.8-.62.72-1.46,1.22-2.39,1.42-5.35,1.43-10.73-1.77-15.34-4.82l-12.82-8.48c1.23.81,1.65-9.04,1.49-9.82-.79-3.88-3.4-6.53-4.87-10.04-3.13-7.27,8.55-9.99,13.77-12.66h0Z"/><path class="cls-30_digital-nomad-89 targetColor" d="M331.16,311.3l-4.21,1.65s2.56.22,6.56,7.99,14.47,32.04,14.05,35.14c0,0,3.87-.17,4.62-1.95.02,0-10.51-33.35-21.02-42.83h0Z" style="fill: rgb(26, 97, 142);"/><path class="cls-9_digital-nomad-89" d="M331.16,311.3l-4.21,1.65s2.56.22,6.56,7.99,14.47,32.04,14.05,35.14c0,0,3.87-.17,4.62-1.95.02,0-10.51-33.35-21.02-42.83h0Z"/><path class="cls-16_digital-nomad-89" d="M177.37,448.55c-.73,1.18-1.85,2.09-3.16,2.56-12.7,6.03-27.23,6.49-41.29,6.84-.86.08-1.73-.02-2.55-.28-2-.81-2.45-3.16-2.11-5.38.11-.89.34-1.76.66-2.59,3.08-7.98,9.26-11.73,14.22-18.13,1.73-2.23,2.84-4.77,4.81-6.85,3.71-3.92,5.35-2.81,9.12.2,4.21,3.35,10.31,1.78,15.38.06,2.14,6.07,3.77,12.3,4.87,18.63.07.37.14.74.2,1.11.34,1.26.28,2.6-.17,3.83h.02Z"/><path class="cls-29_digital-nomad-89" d="M227.32,111.74c-1.35,1.21-3.85,2.65-5.93,4.21-1.19.8-2.22,1.82-3.02,3.01-1.19,2.18-.96,5.91-1.25,6.96-2.39,8.42-7.29,11.26-11.03,10.91-.44-.03-.87-.12-1.28-.25-6.08-1.96-8.37-9.2-9.79-15.43-1.42-6.23-2.85-12.63-4.28-18.95-1.32-5.8-2.64-11.64-2.78-17.59s.98-12.06,4.21-17.05c1.32-2.1,3.07-3.9,5.14-5.26,3.39-2.16,7.54-2.76,11.58-3.02,7.16-.46,15.94.8,20,7.6,3.27,5.45,3.03,15.41,3.26,21.51.23,6.09-.19,19.17-4.82,23.37v-.02Z"/><path class="cls-28_digital-nomad-89" d="M228.9,54.2c-1.26,5.07-5.91,8.81-10.94,10.25-3.67,1.05-7.57,1.05-11.32,1.84-3.75.79-7.59,2.57-9.35,5.96-1.33,2.56-1.26,5.58-1.17,8.42l.54,15.59-3.05-3.94c-.24-.39-.62-.69-1.05-.84-1-.26-1.72.97-1.87,1.99-.45,3.31.94,6.6,3.62,8.59.73.4,1.36.97,1.82,1.66.3.86.3,1.79,0,2.65l-1.51,6.74c-4.21-1.92-6.86-6.22-8.63-10.53-2.83-6.82-4.21-14.17-5.03-21.51-.44-3.84-.75-7.79.19-11.58s3.33-7.37,6.91-8.78c-1.91-4.29.71-9.54,4.65-12.07,3.95-2.54,8.85-3.03,13.55-3.28,3.16-.16,6.83,0,9.84-1,2.39-.81,3.72-2.67,6.32-2.29,5.14.83,7.57,7.84,6.48,12.13Z"/><path class="cls-30_digital-nomad-89 targetColor" d="M225.08,187.89c5.77,1.57,16.3,5.76,21.31,9.02,4.59,2.99,4.73-36.84,4.71-44.58,0-4.14-.23-8.42-2.03-12.12-3.16-6.47-15.16-13.37-18.61-4.21-3.93,10.39-6.76,51.51-5.37,51.89h-.01Z" style="fill: rgb(26, 97, 142);"/><path class="cls-12_digital-nomad-89" d="M225.08,187.89c5.77,1.57,16.3,5.76,21.31,9.02,4.59,2.99,4.73-36.84,4.71-44.58,0-4.14-.23-8.42-2.03-12.12-3.16-6.47-15.16-13.37-18.61-4.21-3.93,10.39-6.76,51.51-5.37,51.89h-.01Z"/><path class="cls-28_digital-nomad-89" d="M255.32,217.77s9.92,8.86-.99,15.47c-10.91,6.61-4.39,23.37-4.39,23.37h7.26s-4.75-10.07-.29-16.75c4.45-6.67,6.96-6.81,6.96-13.63s-5.62-12.17-5.62-12.17l-2.93,3.71h0Z"/><path class="cls-15_digital-nomad-89" d="M221.39,115.91c-1.19.8-2.22,1.82-3.02,3.01-1.19,2.18-.96,5.91-1.25,6.96-2.39,8.42-7.29,11.26-11.03,10.91l-1.28-.25s.67-21.23,7-19.56,9.58-1.18,9.58-1.18v.12h0Z"/><path class="cls-11_digital-nomad-89" d="M269.95,270.22c-.61,5.89-2.45,11.58-3.68,17.38-3.09,14.64-2.24,29.77-2.55,44.73.05.69-.1,1.38-.41,2l-7.37-3.65s-1.56-27.96,2.46-38.36,2.51-28.71,2.51-28.71l-2.2-23.33,3.16.34c6.26,8.53,9.14,19.07,8.08,29.6h0Z"/><path class="cls-18_digital-nomad-89" d="M217.88,325.88l-2.11,6.03c-.34,1.34-1,2.58-1.92,3.62-.56.53-1.24.92-1.99,1.14l-13.68-12.01,14.35-29.06,5.35,30.29h0Z"/><path class="cls-2_digital-nomad-89" d="M201.13,326.32c-.33,1.62-3.97,6.46-4.63,7.96-2.04,4.61-5.34,8.76-7.68,13.28-2.34,4.89-4.1,10.03-5.26,15.32-3.09,12.11-5.8,24.31-8.15,36.58,2.11-17.71,4.67-39.06,5.44-44.62,1.39-9.92,10.18-19.43,10.18-19.43,0,0,3.06-8.29-2.19-12.75-5.25-4.45-16.62-3.98-16.62-3.98h0c.37-.62.74-1.19,1.12-1.72,6.63.02,13.16,1.55,19.11,4.48,1.13.59,2.22,1.19,3.28,1.79.88.53,5.41,3.08,5.41,3.08h-.01Z"/><path class="cls-19_digital-nomad-89" d="M261.71,341.63h0l-8.56-7.31c-5.26-.88-23.27,3.27-23.27,3.27h0c-.13-1.01-.17-2.03-.12-3.04,7.77-2.22,20-4.98,29.02-3.58l.26.94,2.66,9.72h0Z"/><path class="cls-30_digital-nomad-89 targetColor" d="M177.37,448.55c-.73,1.18-1.85,2.09-3.16,2.56-12.7,6.03-27.23,6.49-41.29,6.84-.86.08-1.73-.02-2.55-.28-2-.81-2.45-3.16-2.11-5.38,1.65,0,27.07.26,36.05-3.56,9.28-3.95,12.63-6.13,12.63-6.13l.38,1.05c.07.37.14.74.2,1.11.33,1.25.27,2.57-.17,3.79h.02Z" style="fill: rgb(26, 97, 142);"/><path class="cls-17_digital-nomad-89" d="M177.37,448.55c-.73,1.18-1.85,2.09-3.16,2.56-12.7,6.03-27.23,6.49-41.29,6.84-.86.08-1.73-.02-2.55-.28-2-.81-2.45-3.16-2.11-5.38,1.65,0,27.07.26,36.05-3.56,9.28-3.95,12.63-6.13,12.63-6.13l.38,1.05c.07.37.14.74.2,1.11.33,1.25.27,2.57-.17,3.79h.02Z"/></g></svg>